<svg xmlns="http://www.w3.org/2000/svg" xmlns:xlink="http://www.w3.org/1999/xlink" width="500" zoomAndPan="magnify" viewBox="0 0 375 374.999991" height="500" preserveAspectRatio="xMidYMid meet" version="1.0"><defs><clipPath id="9052319c99"><path d="M 43.117188 25.601562 L 300.367188 25.601562 L 300.367188 282.851562 L 43.117188 282.851562 Z M 43.117188 25.601562 " clip-rule="nonzero"/></clipPath></defs><g clip-path="url(#9052319c99)"><path fill="#1a4789" d="M 300.367188 243.734375 C 300.367188 265.324219 282.867188 282.820312 261.277344 282.820312 L 82.214844 282.820312 C 60.625 282.820312 43.125 265.324219 43.125 243.734375 L 43.125 64.671875 C 43.125 43.082031 60.625 25.582031 82.214844 25.582031 L 261.277344 25.582031 C 282.867188 25.582031 300.363281 43.082031 300.363281 64.671875 L 300.363281 243.734375 Z M 300.367188 243.734375 " fill-opacity="1" fill-rule="nonzero"/></g><path fill="#ffffff" d="M 213.574219 174.1875 L 217.734375 141.9375 L 185.792969 141.9375 L 185.792969 121.34375 C 185.792969 112.003906 188.398438 105.640625 201.785156 105.640625 L 218.851562 105.628906 L 218.851562 76.785156 C 215.90625 76.390625 205.777344 75.511719 193.96875 75.511719 C 169.34375 75.511719 152.492188 90.546875 152.492188 118.152344 L 152.492188 141.9375 L 124.640625 141.9375 L 124.640625 174.191406 L 152.492188 174.191406 L 152.492188 256.949219 L 185.792969 256.949219 L 185.792969 174.1875 Z M 213.574219 174.1875 " fill-opacity="1" fill-rule="nonzero"/></svg>