<svg xmlns="http://www.w3.org/2000/svg" xmlns:xlink="http://www.w3.org/1999/xlink" width="500" zoomAndPan="magnify" viewBox="0 0 375 374.999991" height="500" preserveAspectRatio="xMidYMid meet" version="1.0"><defs><clipPath id="a33700a09d"><path d="M 47.09375 101.472656 L 347.09375 101.472656 L 347.09375 309.222656 L 47.09375 309.222656 Z M 47.09375 101.472656 " clip-rule="nonzero"/></clipPath></defs><g clip-path="url(#a33700a09d)"><path fill="#f21400" d="M 85.542969 101.515625 L 308.664062 101.515625 C 309.925781 101.515625 311.179688 101.578125 312.433594 101.699219 C 313.6875 101.824219 314.929688 102.007812 316.164062 102.253906 C 317.398438 102.496094 318.621094 102.804688 319.824219 103.167969 C 321.03125 103.53125 322.214844 103.957031 323.378906 104.4375 C 324.539062 104.917969 325.675781 105.453125 326.789062 106.046875 C 327.898438 106.640625 328.976562 107.285156 330.023438 107.984375 C 331.070312 108.679688 332.082031 109.429688 333.054688 110.226562 C 334.027344 111.023438 334.957031 111.867188 335.847656 112.753906 C 336.738281 113.644531 337.582031 114.574219 338.382812 115.546875 C 339.179688 116.515625 339.929688 117.527344 340.628906 118.570312 C 341.328125 119.617188 341.976562 120.691406 342.570312 121.800781 C 343.164062 122.910156 343.699219 124.042969 344.183594 125.207031 C 344.664062 126.367188 345.089844 127.546875 345.453125 128.75 C 345.820312 129.953125 346.125 131.171875 346.371094 132.40625 C 346.617188 133.636719 346.800781 134.878906 346.921875 136.128906 C 347.046875 137.378906 347.109375 138.632812 347.109375 139.890625 L 347.109375 270.820312 C 347.109375 272.078125 347.046875 273.332031 346.921875 274.582031 C 346.800781 275.832031 346.617188 277.074219 346.371094 278.308594 C 346.125 279.539062 345.820312 280.757812 345.453125 281.960938 C 345.089844 283.164062 344.664062 284.347656 344.183594 285.507812 C 343.699219 286.667969 343.164062 287.804688 342.570312 288.910156 C 341.976562 290.019531 341.328125 291.097656 340.628906 292.140625 C 339.929688 293.1875 339.179688 294.195312 338.382812 295.167969 C 337.582031 296.136719 336.738281 297.070312 335.847656 297.957031 C 334.957031 298.847656 334.027344 299.6875 333.054688 300.488281 C 332.082031 301.285156 331.070312 302.03125 330.023438 302.730469 C 328.976562 303.429688 327.898438 304.074219 326.789062 304.667969 C 325.675781 305.257812 324.539062 305.796875 323.378906 306.277344 C 322.214844 306.757812 321.03125 307.179688 319.824219 307.546875 C 318.621094 307.910156 317.398438 308.214844 316.164062 308.460938 C 314.929688 308.707031 313.6875 308.890625 312.433594 309.011719 C 311.179688 309.136719 309.925781 309.199219 308.664062 309.199219 L 85.542969 309.199219 C 84.28125 309.199219 83.027344 309.136719 81.773438 309.011719 C 80.519531 308.890625 79.277344 308.707031 78.042969 308.460938 C 76.808594 308.214844 75.585938 307.910156 74.382812 307.542969 C 73.175781 307.179688 71.992188 306.757812 70.832031 306.277344 C 69.667969 305.796875 68.53125 305.257812 67.417969 304.667969 C 66.308594 304.074219 65.230469 303.429688 64.183594 302.730469 C 63.136719 302.03125 62.125 301.285156 61.152344 300.488281 C 60.179688 299.6875 59.25 298.847656 58.359375 297.957031 C 57.46875 297.070312 56.625 296.136719 55.824219 295.167969 C 55.027344 294.195312 54.277344 293.1875 53.578125 292.140625 C 52.878906 291.097656 52.230469 290.019531 51.636719 288.910156 C 51.042969 287.804688 50.507812 286.667969 50.023438 285.507812 C 49.542969 284.347656 49.121094 283.164062 48.753906 281.960938 C 48.386719 280.757812 48.082031 279.539062 47.835938 278.308594 C 47.589844 277.074219 47.40625 275.832031 47.285156 274.582031 C 47.160156 273.332031 47.097656 272.078125 47.097656 270.820312 L 47.097656 139.890625 C 47.097656 138.632812 47.160156 137.378906 47.285156 136.128906 C 47.40625 134.878906 47.589844 133.636719 47.835938 132.40625 C 48.082031 131.171875 48.386719 129.953125 48.753906 128.75 C 49.121094 127.546875 49.542969 126.367188 50.023438 125.207031 C 50.507812 124.042969 51.042969 122.910156 51.636719 121.800781 C 52.230469 120.691406 52.878906 119.617188 53.578125 118.570312 C 54.277344 117.527344 55.027344 116.515625 55.824219 115.546875 C 56.625 114.574219 57.46875 113.644531 58.359375 112.753906 C 59.25 111.867188 60.179688 111.023438 61.152344 110.226562 C 62.125 109.429688 63.136719 108.679688 64.183594 107.984375 C 65.230469 107.285156 66.308594 106.640625 67.417969 106.046875 C 68.53125 105.453125 69.667969 104.917969 70.832031 104.4375 C 71.992188 103.957031 73.175781 103.53125 74.382812 103.167969 C 75.585938 102.804688 76.808594 102.496094 78.042969 102.253906 C 79.277344 102.007812 80.519531 101.824219 81.773438 101.699219 C 83.027344 101.578125 84.28125 101.515625 85.542969 101.515625 Z M 85.542969 101.515625 " fill-opacity="1" fill-rule="nonzero"/></g><path fill="#ffffff" d="M 237.339844 194.992188 L 168.855469 155.523438 C 160.863281 150.917969 150.875 156.675781 150.875 165.886719 L 150.875 244.824219 C 150.875 254.039062 160.863281 259.796875 168.855469 255.191406 L 237.339844 215.71875 C 245.332031 211.113281 245.332031 199.597656 237.339844 194.992188 Z M 237.339844 194.992188 " fill-opacity="1" fill-rule="nonzero"/></svg>