<svg width="120" height="120" viewBox="0 0 120 120" fill="none" xmlns="http://www.w3.org/2000/svg">
<path d="M80.5812 47.4224H78.5425V35.7999C78.5425 33.2349 80.6312 31.1487 83.1987 31.1487H96.5812V33.1849H83.1987C81.7562 33.1849 80.5812 34.3587 80.5812 35.7999V47.4224Z" fill="#93979E"/>
<mask id="mask0_24_242" style="mask-type:luminance" maskUnits="userSpaceOnUse" x="72" y="26" width="26" height="22">
<path d="M72.6399 26.24H97.3636V47.5287H72.6399V26.24Z" fill="white"/>
</mask>
<g mask="url(#mask0_24_242)">
<path d="M74.6874 47.4224H72.6499V35.3849C72.6499 30.3786 76.7249 26.3074 81.7337 26.3074H97.3649V28.3436H81.7337C77.8487 28.3436 74.6874 31.5024 74.6874 35.3849V47.4224Z" fill="#93979E"/>
</g>
<path d="M60.6437 101.684H59.7825V89.7363H60.6437V101.684Z" fill="#93979E"/>
<path d="M65.7411 101.684H64.8799V89.7363H65.7411V101.684Z" fill="#93979E"/>
<mask id="mask1_24_242" style="mask-type:luminance" maskUnits="userSpaceOnUse" x="57" y="101" width="11" height="5">
<path d="M57.7788 101.222H67.7238V105.49H57.7788V101.222Z" fill="white"/>
</mask>
<g mask="url(#mask1_24_242)">
<path d="M67.6912 105.49H57.8975V101.26H67.6912V105.49Z" fill="#434A59"/>
</g>
<path d="M73.8149 101.684H72.9524V89.7363H73.8149V101.684Z" fill="#93979E"/>
<path d="M78.9113 101.684H78.05V89.7363H78.9113V101.684Z" fill="#93979E"/>
<path d="M83.1351 90.53H52.3389V46.3037H83.1351V90.53Z" fill="white"/>
<path d="M80.8625 88.2575H54.6125V48.575H80.8625V88.2575Z" fill="#93979E"/>
<path d="M75.2925 88.2575H61.145V48.575H75.2925V88.2575Z" fill="#3F5FAF"/>
<path d="M67.8689 88.2575H67.0064V82.9075C67.0064 82.8825 67.0214 80.6512 67.0064 79.5712C66.9901 78.3812 67.4639 73.5487 67.9776 70.6987C68.4689 67.9775 67.4639 56.8662 67.0776 53.71C66.8851 52.14 67.0939 51.0275 67.3014 50.3712C67.4726 49.8337 67.5589 49.255 67.5589 48.65V48.575H68.4214V48.65C68.4214 49.3425 68.3214 50.01 68.1239 50.6325C67.9414 51.2075 67.7601 52.19 67.9339 53.605C68.2626 56.2975 69.3626 67.8812 68.8264 70.8512C68.2889 73.8337 67.8539 78.52 67.8689 79.5587C67.8839 80.6474 67.8689 82.8887 67.8689 82.9112V88.2575Z" fill="#434A59"/>
<path d="M71.6937 88.2575H70.1262V82.5224C70.1262 81.4824 70.1787 80.4025 70.2849 79.3125C70.4099 78.0137 70.2687 75.3325 70.1649 73.3762C70.1187 72.5087 70.0799 71.7587 70.0662 71.2275C70.0449 70.3449 70.0674 69.3337 70.0912 68.2625C70.1237 66.8187 70.1574 65.3262 70.0687 64.25C69.9862 63.2437 69.7999 61.8275 69.6587 60.8162C69.4874 59.5862 69.3999 58.3375 69.3999 57.105V48.575H70.9687V57.105C70.9687 58.265 71.0499 59.4412 71.2124 60.6C71.3562 61.6312 71.5462 63.0787 71.6312 64.1212C71.7274 65.2787 71.6924 66.8137 71.6587 68.2975C71.6349 69.35 71.6124 70.3437 71.6337 71.1887C71.6462 71.6987 71.6862 72.4375 71.7312 73.2937C71.8424 75.4112 71.9824 78.0475 71.8449 79.4637C71.7449 80.5037 71.6937 81.5325 71.6937 82.5224V88.2575Z" fill="#84E0EF"/>
<path d="M61.75 88.2575H60.8875V84.1212L60.8912 84.095C60.9112 83.9237 61.4012 79.86 61.8712 77.875C62.065 77.055 61.76 75.9725 61.4062 74.7199C60.9862 73.2337 60.4637 71.3837 60.6062 69.28C60.8925 65.0424 59.8062 55.3112 59.5687 54.4737C59.4312 53.9837 59.4875 53.235 59.7387 52.2462C59.9325 51.485 60.0312 50.705 60.0312 49.9287V48.575H60.8925V49.9287C60.8925 50.7762 60.7862 51.6275 60.575 52.4587C60.295 53.5587 60.345 54.0475 60.3987 54.24C60.6962 55.2912 61.745 65.2225 61.4662 69.3375C61.335 71.2937 61.8137 72.99 62.2362 74.4862C62.6225 75.8537 62.9562 77.0362 62.71 78.0725C62.27 79.9312 61.7925 83.8212 61.75 84.1725V88.2575Z" fill="#434A59"/>
<path d="M63.8525 88.2575H62.285V82.7037L62.2863 82.68C62.29 82.6162 62.6563 76.2675 62.18 73.6762C61.89 72.0937 62.1813 70.905 62.4638 69.7562C62.7125 68.7462 62.9463 67.7937 62.8375 66.4962C62.6613 64.39 62.45 63.7637 62.1813 62.97C62.0838 62.6812 61.9738 62.3537 61.8588 61.9362C61.6563 61.2025 61.6538 60.14 61.85 58.7762C62.0613 57.3187 62.1675 55.8737 62.1675 54.4825V48.575H63.735V54.4825C63.735 55.9487 63.6238 57.4687 63.4013 59C63.24 60.1162 63.23 61.0112 63.37 61.52C63.4738 61.8937 63.5713 62.1875 63.6675 62.47C63.9575 63.3287 64.2075 64.07 64.4 66.3662C64.53 67.9175 64.2413 69.0925 63.9863 70.13C63.7213 71.2087 63.4925 72.1412 63.7225 73.3925C64.2225 76.1137 63.8813 82.2524 63.8525 82.7487V88.2575Z" fill="#529AE3"/>
<path d="M65.1875 88.2575H64.325V48.575H65.1875V88.2575Z" fill="#529AE3"/>
<path d="M79.1213 88.2575H78.2588V82.9075C78.2588 82.8825 78.275 80.6512 78.26 79.5712C78.2438 78.3812 78.7163 73.5487 79.2313 70.6987C79.7225 67.9775 78.7175 56.8662 78.3313 53.71C78.1388 52.14 78.3463 51.0275 78.555 50.3712C78.7263 49.8337 78.8125 49.255 78.8125 48.65V48.575H79.675V48.65C79.675 49.3425 79.575 50.01 79.3775 50.6325C79.195 51.2075 79.0125 52.19 79.1863 53.605C79.5163 56.2975 80.6163 67.8812 80.08 70.8512C79.5413 73.8337 79.1075 78.52 79.1225 79.5587C79.1375 80.6474 79.1225 82.8887 79.1213 82.9112V88.2575Z" fill="#84E0EF"/>
<path d="M73.9888 88.2575H73.1263V84.1212L73.1288 84.095C73.1501 83.9237 73.6388 79.86 74.1101 77.875C74.3038 77.055 73.9988 75.9725 73.6451 74.7199C73.2251 73.2337 72.7026 71.3837 72.8451 69.28C73.1313 65.0424 72.0438 55.3112 71.8076 54.4737C71.6688 53.9837 71.7263 53.235 71.9776 52.2462C72.1713 51.485 72.2688 50.705 72.2688 49.9287V48.575H73.1313V49.9287C73.1313 50.7762 73.0238 51.6275 72.8126 52.4587C72.5338 53.5587 72.5826 54.0475 72.6376 54.24C72.9351 55.2912 73.9826 65.2225 73.7051 69.3375C73.5738 71.2937 74.0526 72.99 74.4738 74.4862C74.8613 75.8537 75.1951 77.0362 74.9488 78.0725C74.5088 79.9312 74.0313 83.8212 73.9888 84.1725V88.2575Z" fill="#FFE164"/>
<path d="M75.8162 88.2575H74.2487V82.7037L74.25 82.68C74.2537 82.6162 74.6212 76.2675 74.145 73.6762C73.8537 72.0937 74.1462 70.905 74.4287 69.7562C74.6762 68.7462 74.9112 67.7937 74.8025 66.4962C74.625 64.39 74.4137 63.7637 74.1462 62.97C74.0487 62.6812 73.9375 62.3537 73.8225 61.9362C73.62 61.2025 73.6175 60.14 73.815 58.7762C74.025 57.3187 74.1312 55.8737 74.1312 54.4825V48.575H75.7V54.4825C75.7 55.9487 75.5875 57.4687 75.3662 59C75.205 60.1162 75.1937 61.0112 75.3337 61.52C75.4375 61.8937 75.5362 62.1875 75.6312 62.47C75.9212 63.3287 76.1712 64.07 76.3637 66.3662C76.495 67.9175 76.2062 69.0925 75.9512 70.13C75.6862 71.2087 75.4575 72.1412 75.6862 73.3925C76.1875 76.1137 75.845 82.2524 75.8162 82.7487V88.2575Z" fill="#FF5F4A"/>
<path d="M77.4262 88.2575H76.5637V48.575H77.4262V88.2575Z" fill="#FFE164"/>
<path d="M90.7075 90.53H83.135V46.3037H90.7075V90.53Z" fill="#93979E"/>
<path d="M80.8624 76.6801H58.1711V71.7664H80.8624V76.6801Z" fill="#DDDDDD"/>
<path d="M80.8624 71.7663H58.1711V66.8525H80.8624V71.7663Z" fill="white"/>
<path d="M60.8062 69.3089C60.8062 69.6776 60.5074 69.9764 60.1387 69.9764C59.7699 69.9764 59.4712 69.6776 59.4712 69.3089C59.4712 68.9401 59.7699 68.6414 60.1387 68.6414C60.5074 68.6414 60.8062 68.9401 60.8062 69.3089Z" fill="#DDDDDD"/>
<path d="M63.9324 69.3089C63.9324 69.6776 63.6337 69.9764 63.2649 69.9764C62.8962 69.9764 62.5974 69.6776 62.5974 69.3089C62.5974 68.9401 62.8962 68.6414 63.2649 68.6414C63.6337 68.6414 63.9324 68.9401 63.9324 69.3089Z" fill="#DDDDDD"/>
<path d="M67.0586 69.3089C67.0586 69.6776 66.7586 69.9764 66.3911 69.9764C66.0224 69.9764 65.7236 69.6776 65.7236 69.3089C65.7236 68.9401 66.0224 68.6414 66.3911 68.6414C66.7586 68.6414 67.0586 68.9401 67.0586 69.3089Z" fill="#DDDDDD"/>
<path d="M70.1838 69.3089C70.1838 69.6776 69.8851 69.9764 69.5163 69.9764C69.1476 69.9764 68.8501 69.6776 68.8501 69.3089C68.8501 68.9401 69.1476 68.6414 69.5163 68.6414C69.8851 68.6414 70.1838 68.9401 70.1838 69.3089Z" fill="#DDDDDD"/>
<path d="M73.3101 69.3089C73.3101 69.6776 73.0113 69.9764 72.6438 69.9764C72.2751 69.9764 71.9751 69.6776 71.9751 69.3089C71.9751 68.9401 72.2751 68.6414 72.6438 68.6414C73.0113 68.6414 73.3101 68.9401 73.3101 69.3089Z" fill="#DDDDDD"/>
<path d="M76.4363 69.3089C76.4363 69.6776 76.1376 69.9764 75.7688 69.9764C75.4001 69.9764 75.1013 69.6776 75.1013 69.3089C75.1013 68.9401 75.4001 68.6414 75.7688 68.6414C76.1376 68.6414 76.4363 68.9401 76.4363 69.3089Z" fill="#DDDDDD"/>
<path d="M79.5625 69.3089C79.5625 69.6776 79.2638 69.9764 78.895 69.9764C78.5263 69.9764 78.2275 69.6776 78.2275 69.3089C78.2275 68.9401 78.5263 68.6414 78.895 68.6414C79.2638 68.6414 79.5625 68.9401 79.5625 69.3089Z" fill="#DDDDDD"/>
<path d="M80.8624 81.5937H58.1711V76.6799H80.8624V81.5937Z" fill="white"/>
<path d="M60.8062 79.1375C60.8062 79.505 60.5074 79.8037 60.1387 79.8037C59.7699 79.8037 59.4712 79.505 59.4712 79.1375C59.4712 78.7687 59.7699 78.47 60.1387 78.47C60.5074 78.47 60.8062 78.7687 60.8062 79.1375Z" fill="#DDDDDD"/>
<path d="M63.9324 79.1375C63.9324 79.505 63.6337 79.8037 63.2649 79.8037C62.8962 79.8037 62.5974 79.505 62.5974 79.1375C62.5974 78.7687 62.8962 78.47 63.2649 78.47C63.6337 78.47 63.9324 78.7687 63.9324 79.1375Z" fill="#DDDDDD"/>
<path d="M67.0586 79.1375C67.0586 79.505 66.7586 79.8037 66.3911 79.8037C66.0224 79.8037 65.7236 79.505 65.7236 79.1375C65.7236 78.7687 66.0224 78.47 66.3911 78.47C66.7586 78.47 67.0586 78.7687 67.0586 79.1375Z" fill="#DDDDDD"/>
<path d="M70.1838 79.1375C70.1838 79.505 69.8851 79.8037 69.5163 79.8037C69.1476 79.8037 68.8501 79.505 68.8501 79.1375C68.8501 78.7687 69.1476 78.47 69.5163 78.47C69.8851 78.47 70.1838 78.7687 70.1838 79.1375Z" fill="#DDDDDD"/>
<path d="M73.3101 79.1375C73.3101 79.505 73.0113 79.8037 72.6438 79.8037C72.2751 79.8037 71.9751 79.505 71.9751 79.1375C71.9751 78.7687 72.2751 78.47 72.6438 78.47C73.0113 78.47 73.3101 78.7687 73.3101 79.1375Z" fill="#DDDDDD"/>
<path d="M76.4363 79.1375C76.4363 79.505 76.1376 79.8037 75.7688 79.8037C75.4001 79.8037 75.1013 79.505 75.1013 79.1375C75.1013 78.7687 75.4001 78.47 75.7688 78.47C76.1376 78.47 76.4363 78.7687 76.4363 79.1375Z" fill="#DDDDDD"/>
<path d="M79.5625 79.1375C79.5625 79.505 79.2638 79.8037 78.895 79.8037C78.5263 79.8037 78.2275 79.505 78.2275 79.1375C78.2275 78.7687 78.5263 78.47 78.895 78.47C79.2638 78.47 79.5625 78.7687 79.5625 79.1375Z" fill="#DDDDDD"/>
<path d="M72.2988 76.6801H71.6526V71.7664H72.2988V76.6801Z" fill="#434A59"/>
<path d="M80.8624 64.185H58.1711V59.2712H80.8624V64.185Z" fill="white"/>
<path d="M60.8062 61.7288C60.8062 62.0975 60.5074 62.395 60.1387 62.395C59.7699 62.395 59.4712 62.0975 59.4712 61.7288C59.4712 61.36 59.7699 61.0613 60.1387 61.0613C60.5074 61.0613 60.8062 61.36 60.8062 61.7288Z" fill="#DDDDDD"/>
<path d="M63.9324 61.7288C63.9324 62.0975 63.6337 62.395 63.2649 62.395C62.8962 62.395 62.5974 62.0975 62.5974 61.7288C62.5974 61.36 62.8962 61.0613 63.2649 61.0613C63.6337 61.0613 63.9324 61.36 63.9324 61.7288Z" fill="#DDDDDD"/>
<path d="M67.0586 61.7288C67.0586 62.0975 66.7586 62.395 66.3911 62.395C66.0224 62.395 65.7236 62.0975 65.7236 61.7288C65.7236 61.36 66.0224 61.0613 66.3911 61.0613C66.7586 61.0613 67.0586 61.36 67.0586 61.7288Z" fill="#DDDDDD"/>
<path d="M70.1838 61.7288C70.1838 62.0975 69.8851 62.395 69.5163 62.395C69.1476 62.395 68.8501 62.0975 68.8501 61.7288C68.8501 61.36 69.1476 61.0613 69.5163 61.0613C69.8851 61.0613 70.1838 61.36 70.1838 61.7288Z" fill="#DDDDDD"/>
<path d="M73.3101 61.7288C73.3101 62.0975 73.0113 62.395 72.6438 62.395C72.2751 62.395 71.9751 62.0975 71.9751 61.7288C71.9751 61.36 72.2751 61.0613 72.6438 61.0613C73.0113 61.0613 73.3101 61.36 73.3101 61.7288Z" fill="#DDDDDD"/>
<path d="M76.4363 61.7288C76.4363 62.0975 76.1376 62.395 75.7688 62.395C75.4001 62.395 75.1013 62.0975 75.1013 61.7288C75.1013 61.36 75.4001 61.0613 75.7688 61.0613C76.1376 61.0613 76.4363 61.36 76.4363 61.7288Z" fill="#DDDDDD"/>
<path d="M79.5625 61.7288C79.5625 62.0975 79.2638 62.395 78.895 62.395C78.5263 62.395 78.2275 62.0975 78.2275 61.7288C78.2275 61.36 78.5263 61.0613 78.895 61.0613C79.2638 61.0613 79.5625 61.36 79.5625 61.7288Z" fill="#DDDDDD"/>
<path d="M80.8624 59.2712H58.1711V54.3574H80.8624V59.2712Z" fill="#EFEFEF"/>
<path d="M59.7387 56.3901H59.0737V55.7251H59.7387V56.3901Z" fill="#434A59"/>
<path d="M62.7375 56.3901H62.0713V55.7251H62.7375V56.3901Z" fill="#434A59"/>
<path d="M65.7363 56.3901H65.0701V55.7251H65.7363V56.3901Z" fill="#434A59"/>
<path d="M68.7351 56.3901H68.0688V55.7251H68.7351V56.3901Z" fill="#434A59"/>
<path d="M71.7336 56.3901H71.0674V55.7251H71.7336V56.3901Z" fill="#434A59"/>
<path d="M74.7324 56.3901H74.0662V55.7251H74.7324V56.3901Z" fill="#434A59"/>
<path d="M77.7312 56.3901H77.0649V55.7251H77.7312V56.3901Z" fill="#434A59"/>
<path d="M80.73 56.3901H80.0637V55.7251H80.73V56.3901Z" fill="#434A59"/>
<mask id="mask2_24_242" style="mask-type:luminance" maskUnits="userSpaceOnUse" x="71" y="101" width="10" height="5">
<path d="M71.04 101.222H80.9438V105.49H71.04V101.222Z" fill="white"/>
</mask>
<g mask="url(#mask2_24_242)">
<path d="M80.8626 105.49H71.0676V101.26H80.8626V105.49Z" fill="#434A59"/>
</g>
<mask id="mask3_24_242" style="mask-type:luminance" maskUnits="userSpaceOnUse" x="22" y="19" width="39" height="28">
<path d="M22.7263 19.2H60.8001V46.4H22.7263V19.2Z" fill="white"/>
</mask>
<g mask="url(#mask3_24_242)">
<path d="M60.7588 46.3036H58.7201V32.1386C58.7201 30.9024 57.7126 29.8949 56.4751 29.8949H27.0113C24.6488 29.8949 22.7263 27.9749 22.7263 25.6136V19.3586H24.7651V25.6136C24.7651 26.8511 25.7726 27.8574 27.0113 27.8574H56.4751C58.8363 27.8574 60.7588 29.7786 60.7588 32.1386V46.3036Z" fill="#93979E"/>
</g>
<mask id="mask4_24_242" style="mask-type:luminance" maskUnits="userSpaceOnUse" x="30" y="14" width="40" height="33">
<path d="M30.72 14.5449H69.12V46.3999H30.72V14.5449Z" fill="white"/>
</mask>
<g mask="url(#mask4_24_242)">
<path d="M69.0699 46.3038H67.0311V30.6638C67.0311 27.595 64.5324 25.0975 61.4611 25.0975H31.0374V14.5613H33.0761V23.06H61.4611C65.6561 23.06 69.0699 26.4713 69.0699 30.6638V46.3038Z" fill="#93979E"/>
</g>
</svg>
